<?xml version="1.0" encoding="UTF-8"?><svg id="a" xmlns="http://www.w3.org/2000/svg" viewBox="0 0 333.59 506.63"><path d="M175.95,408.89c16-12.44,14.22-34.67-3.56-50.67-17.78-16-62.22-11.56-67.56,40.89-5.33,52.44,90.67,144,186.67,48,83.16-83.16,22.47-204.66-7.36-252.91-30.79-49.81-61.49-99.69-91.73-149.84L165.67,0l-33.94,56.94h0l-16.01,26.86c-21,35.23-42.22,70.32-63.45,105.41-26.58,43.95-97.49,180.42-9.65,262.35,66.79,62.3,128.97,59.75,165.73,49.4-78.84,17.59-188.13-49.76-166.62-159.62,24.89-127.11,177.74-142.27,177.75-141.39l2.68,4.36h0c89.66,127.17,41.64,196.84,26.7,219.69-15.11,23.11-53.33,51.56-83.17,32.89-29.83-18.67-5.72-35.56,10.28-48ZM69.28,187.56l70.4-117.65-.21-.34,.14-.23,45.97,75.38,26.29,42.84H69.28Z"/></svg>
